<svg xmlns="http://www.w3.org/2000/svg" viewBox="0 0 166.74 252.62"><defs><style>.cls-1{fill:#111;}</style></defs><g id="Camada_2" data-name="Camada 2"><g id="Camada_1-2" data-name="Camada 1"><path class="cls-1" d="M152.59,212.92a12.52,12.52,0,1,1-10.78,10.79A12.53,12.53,0,0,1,152.59,212.92Z"/><path class="cls-1" d="M79,206.66a37.56,37.56,0,1,1,37.56-37.56h0A37.55,37.55,0,0,1,79,206.66ZM79,119A50.07,50.07,0,1,0,129,169.1h0A50.08,50.08,0,0,0,79,119Z"/><path class="cls-1" d="M81.2,146.42a2.13,2.13,0,0,1-2.77,1.19l-.31-.16h0l-.85-.38a12.82,12.82,0,0,0-16.66,7.12c-.11.29-.22.58-.31.87h0a1.83,1.83,0,0,1-.08.25,2.13,2.13,0,0,1-2.77,1.18h0l-.23-.11a2.11,2.11,0,0,1-1-2.43s0,0,0-.06a18.89,18.89,0,0,1,1.69-3.78,17,17,0,0,1,21-7h0c.4.17.8.34,1.18.53l0,0,.23.12a2.12,2.12,0,0,1,1,2.3A1.83,1.83,0,0,1,81.2,146.42Z"/><path class="cls-1" d="M78.43,212.82a43.82,43.82,0,0,1,0-87.63h.76a43.82,43.82,0,0,1,0,87.63ZM76.71,100.18a68.57,68.57,0,0,0-38.85,13.47,1.8,1.8,0,0,1-2.51-.36,1.78,1.78,0,0,1-.35-1.07V12.77A12.73,12.73,0,0,0,22.23,0,12.53,12.53,0,0,0,10,12.52V169A68.84,68.84,0,0,0,78.8,237.85h0a68.85,68.85,0,1,0-2.1-137.67Z"/><path class="cls-1" d="M35.27,235.15,21.66,248.76a12.8,12.8,0,0,1-17.83.46,12.52,12.52,0,0,1-.16-17.87h0l13.52-13.52a5,5,0,0,1,7.29.24,71.31,71.31,0,0,0,10.25,9.55A5,5,0,0,1,35.27,235.15Z"/></g></g></svg>